<svg xmlns="http://www.w3.org/2000/svg" viewBox="0 0 780 410" width="780" height="410" role="img" aria-label="16 clients, pipelines of 16 commands. operations per second for each command · the throughput case">
<title>16 clients, pipelines of 16 commands. operations per second for each command · the throughput case</title>
<style>
svg{--surface:#ffffff;--ink:#17202c;--muted:#586476;--faint:#8b95a5;--rule:#dbe0e7;--grid:#e7ebf0;--skarn:#0b7d74;--skarn1:#5fb3aa;--asyncio:#3572a5;--threads:#8a94a6;--ftthreads:#b3306b;--memurai:#7a4fa3;--gc:#c0392b}
@media (prefers-color-scheme: dark){svg{--surface:#161b22;--ink:#e6ebf1;--muted:#a2adbd;--faint:#74808f;--rule:#2b3440;--grid:#232b36;--skarn:#3cc2b4;--skarn1:#8adfd5;--asyncio:#6aa6dc;--threads:#9aa4b5;--ftthreads:#ec79a8;--memurai:#b38ae0;--gc:#f07c6c}}
.bg{fill:var(--surface);stroke:var(--rule)}
text{font-family:ui-monospace, SFMono-Regular, 'Cascadia Mono', Consolas, Menlo, monospace;font-size:12px;fill:var(--muted)}
.t{font-family:-apple-system, 'Segoe UI', 'Helvetica Neue', Helvetica, Arial, sans-serif;font-size:16px;font-weight:600;fill:var(--ink)}
.st{font-family:-apple-system, 'Segoe UI', 'Helvetica Neue', Helvetica, Arial, sans-serif;font-size:12.5px;fill:var(--muted)}
.ax{font-family:-apple-system, 'Segoe UI', 'Helvetica Neue', Helvetica, Arial, sans-serif;font-size:12px;fill:var(--faint)}
.lab{font-family:-apple-system, 'Segoe UI', 'Helvetica Neue', Helvetica, Arial, sans-serif;font-size:13px;fill:var(--ink)}
.box{font-family:-apple-system, 'Segoe UI', 'Helvetica Neue', Helvetica, Arial, sans-serif;font-size:13px;fill:var(--ink)}
.small{font-family:-apple-system, 'Segoe UI', 'Helvetica Neue', Helvetica, Arial, sans-serif;font-size:11.5px;fill:var(--muted)}
.val{fill:var(--ink);font-weight:600}
.g{stroke:var(--grid);stroke-width:1}
.b{stroke:var(--rule);stroke-width:1}
.frame{fill:none;stroke:var(--faint);stroke-width:1.2}
.arrow{stroke:var(--muted);stroke-width:1.4;fill:none;marker-end:url(#ah)}
.whisk{stroke:var(--ink);stroke-width:1;opacity:.55}
.pale{fill-opacity:.35}
.f-skarn{fill:var(--skarn)} .s-skarn{stroke:var(--skarn);fill:none}
.f-skarn1{fill:var(--skarn1)} .s-skarn1{stroke:var(--skarn1);fill:none}
.f-asyncio{fill:var(--asyncio)} .s-asyncio{stroke:var(--asyncio);fill:none}
.f-threads{fill:var(--threads)} .s-threads{stroke:var(--threads);fill:none}
.f-ftthreads{fill:var(--ftthreads)} .s-ftthreads{stroke:var(--ftthreads);fill:none}
.f-memurai{fill:var(--memurai)} .s-memurai{stroke:var(--memurai);fill:none}
.f-gc{fill:var(--gc)} .s-gc{stroke:var(--gc);fill:none}
</style>
<rect class="bg" x="0.5" y="0.5" width="779" height="409" rx="10"/>
<text class="t" x="24" y="34">16 clients, pipelines of 16 commands</text>
<text class="st" x="24" y="55">operations per second for each command · the throughput case</text>
<rect x="24.0" y="70.0" width="12" height="12" rx="2" class="f-skarn"/>
<text x="42.0" y="80.0" class="lab">Sedis (Skarn)</text>
<rect x="153.0" y="70.0" width="12" height="12" rx="2" class="f-asyncio"/>
<text x="171.0" y="80.0" class="lab">Python asyncio</text>
<rect x="289.0" y="70.0" width="12" height="12" rx="2" class="f-threads"/>
<text x="307.0" y="80.0" class="lab">Python threads (GIL)</text>
<rect x="467.0" y="70.0" width="12" height="12" rx="2" class="f-ftthreads"/>
<text x="485.0" y="80.0" class="lab">Python free-threaded</text>
<rect x="645.0" y="70.0" width="12" height="12" rx="2" class="f-memurai"/>
<text x="663.0" y="80.0" class="lab">Memurai (C++)</text>
<line x1="76" y1="348.0" x2="756" y2="348.0" class="b"/>
<text x="68" y="352.0" text-anchor="end">0</text>
<line x1="76" y1="285.0" x2="756" y2="285.0" class="g"/>
<text x="68" y="289.0" text-anchor="end">200,000</text>
<line x1="76" y1="222.0" x2="756" y2="222.0" class="g"/>
<text x="68" y="226.0" text-anchor="end">400,000</text>
<line x1="76" y1="159.0" x2="756" y2="159.0" class="g"/>
<text x="68" y="163.0" text-anchor="end">600,000</text>
<line x1="76" y1="96.0" x2="756" y2="96.0" class="g"/>
<text x="68" y="100.0" text-anchor="end">800,000</text>
<rect x="86.0" y="247.9" width="17.1" height="100.1" rx="1.5" class="f-skarn"/>
<line x1="94.5" y1="248.2" x2="94.5" y2="218.6" class="whisk"/>
<rect x="105.1" y="280.3" width="17.1" height="67.7" rx="1.5" class="f-asyncio"/>
<line x1="113.6" y1="280.8" x2="113.6" y2="278.0" class="whisk"/>
<rect x="124.1" y="287.4" width="17.1" height="60.6" rx="1.5" class="f-threads"/>
<line x1="132.7" y1="288.8" x2="132.7" y2="277.8" class="whisk"/>
<rect x="143.2" y="273.7" width="17.1" height="74.3" rx="1.5" class="f-ftthreads"/>
<line x1="151.7" y1="276.5" x2="151.7" y2="264.2" class="whisk"/>
<rect x="162.3" y="159.8" width="17.1" height="188.2" rx="1.5" class="f-memurai"/>
<line x1="170.8" y1="163.3" x2="170.8" y2="152.9" class="whisk"/>
<text x="132.7" y="368" text-anchor="middle" class="lab">SET</text>
<rect x="199.3" y="241.7" width="17.1" height="106.3" rx="1.5" class="f-skarn"/>
<line x1="207.9" y1="243.7" x2="207.9" y2="214.4" class="whisk"/>
<rect x="218.4" y="273.4" width="17.1" height="74.6" rx="1.5" class="f-asyncio"/>
<line x1="226.9" y1="276.7" x2="226.9" y2="271.9" class="whisk"/>
<rect x="237.5" y="271.5" width="17.1" height="76.5" rx="1.5" class="f-threads"/>
<line x1="246.0" y1="271.7" x2="246.0" y2="265.1" class="whisk"/>
<rect x="256.5" y="274.7" width="17.1" height="73.3" rx="1.5" class="f-ftthreads"/>
<line x1="265.1" y1="277.9" x2="265.1" y2="261.6" class="whisk"/>
<rect x="275.6" y="149.3" width="17.1" height="198.7" rx="1.5" class="f-memurai"/>
<line x1="284.1" y1="152.0" x2="284.1" y2="140.8" class="whisk"/>
<text x="246.0" y="368" text-anchor="middle" class="lab">GET</text>
<rect x="312.7" y="258.8" width="17.1" height="89.2" rx="1.5" class="f-skarn"/>
<line x1="321.2" y1="259.1" x2="321.2" y2="234.8" class="whisk"/>
<rect x="331.7" y="286.0" width="17.1" height="62.0" rx="1.5" class="f-asyncio"/>
<line x1="340.3" y1="286.7" x2="340.3" y2="283.3" class="whisk"/>
<rect x="350.8" y="289.6" width="17.1" height="58.4" rx="1.5" class="f-threads"/>
<line x1="359.3" y1="290.8" x2="359.3" y2="285.9" class="whisk"/>
<rect x="369.9" y="273.9" width="17.1" height="74.1" rx="1.5" class="f-ftthreads"/>
<line x1="378.4" y1="276.1" x2="378.4" y2="266.8" class="whisk"/>
<rect x="388.9" y="149.4" width="17.1" height="198.6" rx="1.5" class="f-memurai"/>
<line x1="397.5" y1="167.0" x2="397.5" y2="141.2" class="whisk"/>
<text x="359.3" y="368" text-anchor="middle" class="lab">INCR</text>
<rect x="426.0" y="260.3" width="17.1" height="87.7" rx="1.5" class="f-skarn"/>
<line x1="434.5" y1="276.4" x2="434.5" y2="236.2" class="whisk"/>
<rect x="445.1" y="287.6" width="17.1" height="60.4" rx="1.5" class="f-asyncio"/>
<line x1="453.6" y1="288.5" x2="453.6" y2="286.3" class="whisk"/>
<rect x="464.1" y="292.6" width="17.1" height="55.4" rx="1.5" class="f-threads"/>
<line x1="472.7" y1="292.7" x2="472.7" y2="288.1" class="whisk"/>
<rect x="483.2" y="247.2" width="17.1" height="100.8" rx="1.5" class="f-ftthreads"/>
<line x1="491.7" y1="249.1" x2="491.7" y2="240.4" class="whisk"/>
<rect x="502.3" y="175.2" width="17.1" height="172.8" rx="1.5" class="f-memurai"/>
<line x1="510.8" y1="176.9" x2="510.8" y2="171.1" class="whisk"/>
<text x="472.7" y="368" text-anchor="middle" class="lab">LPUSH</text>
<rect x="539.3" y="261.8" width="17.1" height="86.2" rx="1.5" class="f-skarn"/>
<line x1="547.9" y1="263.0" x2="547.9" y2="236.1" class="whisk"/>
<rect x="558.4" y="297.0" width="17.1" height="51.0" rx="1.5" class="f-asyncio"/>
<line x1="566.9" y1="297.3" x2="566.9" y2="295.4" class="whisk"/>
<rect x="577.5" y="300.6" width="17.1" height="47.4" rx="1.5" class="f-threads"/>
<line x1="586.0" y1="303.6" x2="586.0" y2="296.3" class="whisk"/>
<rect x="596.5" y="255.0" width="17.1" height="93.0" rx="1.5" class="f-ftthreads"/>
<line x1="605.1" y1="256.0" x2="605.1" y2="244.7" class="whisk"/>
<rect x="615.6" y="232.6" width="17.1" height="115.4" rx="1.5" class="f-memurai"/>
<line x1="624.1" y1="236.1" x2="624.1" y2="231.3" class="whisk"/>
<text x="586.0" y="368" text-anchor="middle" class="lab">HSET</text>
<rect x="652.7" y="316.9" width="17.1" height="31.1" rx="1.5" class="f-skarn"/>
<line x1="661.2" y1="317.5" x2="661.2" y2="309.6" class="whisk"/>
<rect x="671.7" y="328.1" width="17.1" height="19.9" rx="1.5" class="f-asyncio"/>
<line x1="680.3" y1="328.4" x2="680.3" y2="328.0" class="whisk"/>
<rect x="690.8" y="332.5" width="17.1" height="15.5" rx="1.5" class="f-threads"/>
<line x1="699.3" y1="332.5" x2="699.3" y2="331.9" class="whisk"/>
<rect x="709.9" y="340.8" width="17.1" height="7.2" rx="1.5" class="f-ftthreads"/>
<line x1="718.4" y1="340.9" x2="718.4" y2="340.1" class="whisk"/>
<rect x="728.9" y="266.8" width="17.1" height="81.2" rx="1.5" class="f-memurai"/>
<line x1="737.5" y1="267.9" x2="737.5" y2="264.4" class="whisk"/>
<text x="699.3" y="368" text-anchor="middle" class="lab">MSET</text>
<text x="76" y="392" class="ax">operations per second · bar: median of three rounds · line: lowest to highest</text>
</svg>
